<?xml version="1.0" encoding="UTF-8" standalone="no"?>

<svg
   viewBox="0 0 185.20833 94.548058"
   version="1.1"
   id="svg5"
   xmlns="http://www.w3.org/2000/svg"
   xmlnsSvg="http://www.w3.org/2000/svg">
  <defs
     id="defs2">
    <filter
       style="color-interpolation-filters:sRGB"
       id="filter922"
       x="-0.097674087"
       y="-0.22891448"
       width="1.1953481"
       height="1.457829">
      <feGaussianBlur
         stdDeviation="7.6953263"
         id="feGaussianBlur924" />
    </filter>
    <filter
       style="color-interpolation-filters:sRGB"
       id="filter2587"
       x="-0.10296376"
       y="-0.20506504"
       width="1.2059275"
       height="1.4101301">
      <feGaussianBlur
         stdDeviation="8.0915605"
         id="feGaussianBlur2589" />
    </filter>
    <filter
       style="color-interpolation-filters:sRGB"
       id="filter7751"
       x="-0.11518427"
       y="-0.16081239"
       width="1.2303685"
       height="1.3216248">
      <feGaussianBlur
         stdDeviation="9.2591954"
         id="feGaussianBlur7753" />
    </filter>
    <clipPath
       clipPathUnits="userSpaceOnUse"
       id="clipPath7841">
      <rect
         style="fill:none;fill-opacity:1;stroke:#000000;stroke-width:1.47398;stroke-dasharray:none;stroke-opacity:1"
         id="rect7843"
         width="181.59814"
         height="113.10089"
         x="19.18004"
         y="48.20866" />
    </clipPath>
  </defs>
  <g
     id="layer1"
     transform="translate(-17.82882,-70.440588)">
    <rect
       style="fill:#2a3b89;fill-opacity:1;stroke:none;stroke-width:0.237683;stroke-dasharray:none;stroke-opacity:1"
       id="rect8239"
       width="185.20833"
       height="94.548058"
       x="17.828821"
       y="70.44059" />
    <g
       id="g7765"
       transform="matrix(1.0198801,0,0,0.83596162,-1.7325222,30.140028)"
       clip-path="url(#clipPath7841)">
      <path
         style="mix-blend-mode:normal;fill:#000000;fill-opacity:1;stroke:none;stroke-width:0.264999;filter:url(#filter7751)"
         d="m 15.16364,6.734149 0.537399,122.526971 c 0,0 11.822777,22.03336 26.332551,3.22439 14.509771,-18.80896 21.495959,-22.03335 32.781338,-18.80896 11.285378,3.22439 26.869952,18.80896 42.454522,17.19677 15.58457,-1.6122 13.97237,-18.27157 26.33255,-18.27157 23.20293,11.97842 29.77897,28.25033 47.82851,4.83659 8.59838,-11.28538 15.58457,-13.97237 15.58457,-13.97237 l 1.0748,-101.568412 z"
         id="path4043-8"/>
      <path
         style="fill:#5869b3;fill-opacity:1;stroke:none;stroke-width:0.264999"
         d="M 16.12197,5.3739883 16.659369,127.90096 c 0,0 11.822777,22.03336 26.332551,3.22439 14.509771,-18.80896 21.495959,-22.03335 32.781338,-18.80896 11.285378,3.22439 26.869952,18.80896 42.454522,17.19677 15.58457,-1.6122 13.97237,-18.27157 26.33255,-18.27157 23.20293,11.97842 29.77897,28.25033 47.82851,4.83659 8.59838,-11.28538 15.58457,-13.97237 15.58457,-13.97237 l 1.0748,-101.56841273 z"
         id="path4043"/>
      <path
         style="mix-blend-mode:normal;fill:#000000;fill-opacity:1;stroke:none;stroke-width:0.264999;filter:url(#filter2587)"
         d="m 16.987191,30.022882 0.314619,78.340028 c 0,0 10.880599,20.61787 25.484109,5.0339 13.876776,-14.808431 17.933263,-30.832596 30.832627,-31.461836 17.012588,2.133 48.538154,40.309166 74.879224,24.225606 20.05214,-16.478634 27.09556,-13.165674 37.12499,6.92161 3.77543,6.92161 8.49471,11.64089 16.04556,5.97776 7.55084,-5.66314 1.88771,-92.183248 1.88771,-92.183248 z"
         id="path980-1"/>
      <path
         style="fill:#94a2eb;fill-opacity:1;stroke:none;stroke-width:0.264999"
         d="m 16.045551,29.88877 0.314619,78.34004 c 0,0 10.880599,20.61787 25.484109,5.0339 13.876776,-14.808441 17.933263,-30.832621 30.832627,-31.461861 17.012588,2.132999 48.538174,40.309191 74.879244,24.225631 20.05214,-16.478662 27.09556,-13.165702 37.12499,6.92161 3.77543,6.92161 8.49471,11.64089 16.04556,5.97776 7.55084,-5.66314 1.88771,-92.183267 1.88771,-92.183267 z"
         id="path980"/>
      <path
         style="mix-blend-mode:normal;fill:#000000;fill-opacity:1;stroke:none;stroke-width:0.264999;filter:url(#filter922)"
         d="m 16.10334,37.973226 189.0858,-3.146187 -0.31462,61.979862 c 0,0 -1.25847,11.326259 -8.18008,4.090029 -6.92161,-7.236209 -7.23623,-15.730919 -19.50636,-14.157819 -12.27012,1.57309 -25.79873,7.55084 -33.34957,11.640881 -7.55085,4.090028 -37.125,1.258461 -46.563562,-14.787071 C 87.836391,67.547371 76.195499,64.715811 68.015416,66.918141 59.83533,69.120461 49.767535,86.424491 48.50906,94.289951 47.250586,102.1554 40.958212,120.7179 29.002704,114.11091 17.047195,107.50392 16.10334,37.973226 16.10334,37.973226 Z"
         id="path790-7" />
      <path
         style="fill:#f5faec;fill-opacity:1;stroke:none;stroke-width:0.264856;stroke-dasharray:none"
         d="m 15.416314,34.29343 189.085796,-3.146187 -0.31462,61.97987 c 0,0 -1.25847,11.326277 -8.18008,4.09005 -6.92161,-7.23623 -7.55085,-18.877126 -19.50636,-14.15784 C 146.54792,98.039839 112.70047,104.58821 96.587922,79.913133 87.149365,63.867583 75.508473,61.036013 67.32839,63.238343 47.205423,72.192448 44.514927,118.28499 28.315678,110.43114 16.360169,103.82415 15.416314,34.29343 15.416314,34.29343 Z"
         id="path790" />
    </g>
  </g>
</svg>
